<svg width="533" height="129" viewBox="0 0 533 129" version="1.1" xmlns="http://www.w3.org/2000/svg" xmlns:xlink="http://www.w3.org/1999/xlink" xmlns:figma="http://www.figma.com/figma/ns">
<title>full-leaf-newseri</title>
<desc>Created using Figma</desc>
<g id="Canvas" transform="translate(339 233)" figma:type="canvas">
<g id="full-leaf-newseri" style="mix-blend-mode:normal;" figma:type="frame">
<g id="Canvas" style="mix-blend-mode:normal;" figma:type="frame">
<g id="full-leaf-newseri" style="mix-blend-mode:normal;isolation:isolate;" figma:type="frame">
<g id="Group" style="mix-blend-mode:normal;isolation:isolate;" figma:type="frame">
<g id="newseri" style="mix-blend-mode:normal;isolation:isolate;" figma:type="frame">
<g id="Vector" style="mix-blend-mode:normal;isolation:isolate;" figma:type="vector">
<use xlink:href="#path0_fill" transform="translate(-239.79 -207.384)" fill="#FFFFFF" style="mix-blend-mode:normal;"/>
</g>
<g id="Vector" style="mix-blend-mode:normal;isolation:isolate;" figma:type="vector">
<use xlink:href="#path1_fill" transform="translate(-175.228 -209.562)" fill="#FFFFFF" style="mix-blend-mode:normal;"/>
</g>
<g id="Vector" style="mix-blend-mode:normal;isolation:isolate;" figma:type="vector">
<use xlink:href="#path2_fill" transform="translate(-109.325 -205.373)" fill="#FFFFFF" style="mix-blend-mode:normal;"/>
</g>
<g id="Vector" style="mix-blend-mode:normal;isolation:isolate;" figma:type="vector">
<use xlink:href="#path3_fill" transform="translate(-7.54362 -211.74)" fill="#FFFFFF" style="mix-blend-mode:normal;"/>
</g>
<g id="Vector" style="mix-blend-mode:normal;isolation:isolate;" figma:type="vector">
<use xlink:href="#path4_fill" transform="translate(40.4211 -209.562)" fill="#FFFFFF" style="mix-blend-mode:normal;"/>
</g>
<g id="Vector" style="mix-blend-mode:normal;isolation:isolate;" figma:type="vector">
<use xlink:href="#path5_fill" transform="translate(105.485 -202.189)" fill="#FFFFFF" style="mix-blend-mode:normal;"/>
</g>
<g id="Vector" style="mix-blend-mode:normal;isolation:isolate;" figma:type="vector">
<use xlink:href="#path6_fill" transform="translate(165.855 -232.35)" fill="#FFFFFF" style="mix-blend-mode:normal;"/>
</g>
</g>
<g id="Group" style="mix-blend-mode:normal;isolation:isolate;" figma:type="frame">
<g id="Group" style="mix-blend-mode:normal;isolation:isolate;" figma:type="frame">
<g id="Vector 3" style="mix-blend-mode:normal;isolation:isolate;" figma:type="frame">
<g id="Vector" style="mix-blend-mode:normal;isolation:isolate;" figma:type="vector">
<use xlink:href="#path7_fill" transform="matrix(-0.974246 0.225489 0.225938 0.974142 -276.983 -215.592)" fill="#F2C94C" style="mix-blend-mode:normal;"/>
</g>
</g>
<g id="Vector 3" style="mix-blend-mode:normal;isolation:isolate;" figma:type="frame">
<g id="Vector" style="mix-blend-mode:normal;isolation:isolate;" figma:type="vector">
<use xlink:href="#path8_fill" transform="matrix(-0.17841 0.984211 0.986299 0.163481 -328.86 -165.43)" fill="#F2C94C" style="mix-blend-mode:normal;"/>
</g>
</g>
</g>
</g>
</g>
</g>
</g>
</g>
</g>
<defs>
<path id="path0_fill" d="M 48.2855 103.384C 46.3854 103.384 44.8766 102.49 43.7588 100.703C 42.6411 99.0271 41.8027 97.0722 41.2439 94.838C 40.685 92.6039 40.2939 90.3699 40.0704 88.1358C 39.9585 85.7899 39.9026 84.0025 39.9026 82.7739C 39.9026 79.4227 40.0704 76.0716 40.4056 72.7204C 40.8528 69.3691 41.2998 66.0179 41.7468 62.6668C 42.3057 59.3157 42.7529 55.9645 43.0881 52.6134C 43.5353 49.2622 43.7588 45.9109 43.7588 42.5597C 43.7588 41.2194 43.7029 39.7671 43.5912 38.2033C 43.4794 36.6394 43.1999 35.1873 42.7529 33.8467C 42.4176 32.3946 41.8027 31.2216 40.9087 30.328C 40.0145 29.4344 38.8408 28.9876 37.3879 28.9876C 36.3818 28.9876 35.264 29.8254 34.0346 31.5008C 32.8052 33.0648 31.6316 34.908 30.5138 37.0303C 29.5079 39.0411 28.6137 41.1077 27.8313 43.2299C 27.1605 45.2407 26.8254 46.7488 26.8254 47.7541C 26.8254 50.2117 26.8254 52.7251 26.8254 55.2943C 26.937 57.7517 26.993 60.2651 26.993 62.8344L 26.993 72.5529C 26.8811 74.5634 26.7135 76.6301 26.49 78.7525C 26.2665 80.8748 25.9311 82.9414 25.4841 84.9522C 25.1488 86.9627 24.6458 88.9177 23.9751 90.8167C 23.3046 92.6039 22.4103 94.2237 21.2926 95.6758C 20.2867 97.0164 19.0571 98.1333 17.6041 99.0271C 16.1511 99.9207 14.4186 100.368 12.4067 100.368C 10.1713 100.368 8.32703 99.6415 6.874 98.1892C 5.42094 96.7371 4.24735 94.8939 3.35317 92.6597C 2.45899 90.3141 1.78836 87.7448 1.34127 84.9522C 1.00595 82.0478 0.726519 79.2552 0.502975 76.5742C 0.391202 73.7816 0.335317 71.2682 0.335317 69.034C 0.447088 66.6883 0.502975 64.8451 0.502975 63.5045L 0.502975 55.6294C 0.502975 51.3845 0.391202 47.1956 0.167658 43.0624C 0.0558863 38.9294 0 34.7963 0 30.6631C 0 28.4289 0 25.5804 0 22.1176C 0.111772 18.6548 0.558861 15.3036 1.34127 12.0642C 2.12367 8.71305 3.40906 5.86455 5.19742 3.51868C 6.98575 1.17282 9.6124 1.94593e-07 13.0773 1.94593e-07C 14.6422 1.94593e-07 16.0393 0.502637 17.2688 1.50791C 18.4983 2.51319 19.5601 3.74208 20.4543 5.19414C 21.4602 6.64643 22.2427 8.21019 22.8016 9.88587C 23.4721 11.5615 23.9751 13.0136 24.3105 14.2423C 25.4282 12.6785 26.7135 11.1704 28.1667 9.71832C 29.7314 8.26604 31.464 6.98152 33.3639 5.86455C 35.264 4.74736 37.3879 3.85378 39.735 3.18359C 42.0822 2.51319 44.7647 2.1781 47.7826 2.1781C 53.483 2.1781 57.8981 3.57453 61.0276 6.36719C 64.269 9.04814 66.6161 12.4551 68.0693 16.5881C 69.634 20.6097 70.5842 24.9661 70.9194 29.6578C 71.2547 34.3493 71.4225 38.5943 71.4225 42.3922C 71.4225 44.2913 71.2547 47.1398 70.9194 50.9377C 70.5842 54.6239 70.0253 58.7572 69.2429 63.337C 68.5722 67.8053 67.6222 72.441 66.3926 77.2444C 65.1632 81.9361 63.7101 86.2367 62.0335 90.1465C 60.3571 94.0562 58.3451 97.2398 55.9979 99.6973C 53.7624 102.155 51.1916 103.384 48.2855 103.384Z"/>
<path id="path1_fill" d="M 72.7638 71.0448C 72.7638 74.8429 71.5342 78.585 69.0751 82.2712C 66.728 85.8458 63.7101 89.0852 60.0217 91.9896C 56.4449 94.7822 52.5887 97.0722 48.4533 98.8596C 44.3177 100.535 40.5174 101.373 37.0525 101.373C 31.1286 101.373 25.8193 99.9207 21.125 97.0164C 16.5423 94.0003 12.6861 90.2024 9.5566 85.6224C 6.42685 81.0426 4.02377 76.0157 2.34715 70.5421C 0.782381 64.9568 1.13569e-06 59.5391 1.13569e-06 54.2888C 1.13569e-06 48.7038 0.782381 42.7275 2.34715 36.3601C 3.91191 29.9929 6.25928 24.1284 9.38881 18.7665C 12.6302 13.4046 16.654 8.93644 21.4601 5.36191C 26.3782 1.78716 32.1904 7.04561e-07 38.8967 7.04561e-07C 42.697 7.04561e-07 46.3295 0.670183 49.7946 2.01077C 53.2595 3.23944 56.2774 5.02682 58.848 7.37246C 61.4189 9.71833 63.4866 12.511 65.0514 15.7504C 66.6161 18.9899 67.3985 22.6205 67.3985 26.6418C 67.3985 31.892 66.281 36.8069 64.0455 41.3869C 61.81 45.967 58.848 49.9324 55.1596 53.2836C 51.471 56.6347 47.2237 59.3715 42.4175 61.494C 37.6114 63.5048 32.6934 64.6217 27.6637 64.8451C 28.1107 68.0846 29.396 70.4304 31.5197 71.8827C 33.7552 73.3348 36.3818 74.0608 39.3997 74.0608C 41.6352 74.0608 43.8147 73.5023 45.9384 72.3854C 48.062 71.2682 50.1297 70.0395 52.1417 68.6989C 54.1535 67.2468 56.1096 65.9623 58.0097 64.8451C 60.0217 63.7281 62.0335 63.1697 64.0455 63.1697C 66.281 63.1697 68.2928 63.8957 70.081 65.3478C 71.8695 66.8 72.7638 68.6989 72.7638 71.0448ZM 45.603 29.9929C 45.603 28.5409 45.2119 27.0327 44.4293 25.469C 43.6469 23.905 42.4176 23.1231 40.7409 23.1231C 38.2819 23.1231 36.2142 23.7933 34.5376 25.1337C 32.8609 26.3625 31.4638 27.9822 30.3462 29.9929C 29.2285 31.892 28.3342 33.9584 27.6637 36.1926C 27.1048 38.4267 26.7695 40.4933 26.6576 42.3922C 28.2224 42.0571 30.0668 41.6103 32.1904 41.0518C 34.4257 40.4934 36.4936 39.7673 38.3938 38.8735C 40.4055 37.8682 42.0822 36.6394 43.4234 35.1873C 44.8766 33.735 45.603 32.0037 45.603 29.9929Z"/>
<path id="path2_fill" d="M 83.326 98.8596C 79.7495 98.8596 76.5081 96.9607 73.6019 93.1626C 70.8077 89.3647 68.3487 84.8405 66.2251 79.5905C 64.1014 74.2286 62.3129 68.755 60.86 63.1697C 59.5188 57.5844 58.5127 52.9485 57.8421 49.2622C 56.9479 51.4964 55.7185 54.2332 54.1535 57.4727C 52.7006 60.7121 50.968 64.1191 48.9563 67.6938C 47.0561 71.2684 44.9882 74.8988 42.7529 78.585C 40.5174 82.1597 38.1703 85.3992 35.7113 88.3035C 33.3639 91.2079 30.9608 93.5535 28.5018 95.3409C 26.1547 97.1283 23.8634 98.0219 21.6279 98.0219C 18.61 98.0219 15.9275 96.5696 13.5804 93.6652C 11.3449 90.7609 9.44474 86.9629 7.87998 82.2714C 6.31521 77.5797 4.97373 72.3853 3.8562 66.6883C 2.85009 60.9913 2.06771 55.2943 1.50884 49.5973C 0.94996 43.9003 0.558875 38.5945 0.335368 33.6794C 0.111642 28.7643 3.02403e-06 24.7988 3.02403e-06 21.7827C 3.02403e-06 18.9901 0.111642 16.3091 0.335368 13.7399C 0.670518 11.1706 1.22939 8.8806 2.01177 6.87005C 2.90602 4.85927 4.13564 3.29529 5.70041 2.17832C 7.37703 0.949647 9.55661 0.335092 12.2391 0.335092C 14.8098 0.335092 16.9894 1.28474 18.7776 3.18359C 20.6778 5.08267 22.2427 7.59607 23.4721 10.7238C 24.7015 13.7399 25.7076 17.2027 26.49 21.1125C 27.2724 24.9105 27.8872 28.8201 28.3342 32.8416C 28.7812 36.7513 29.0607 40.605 29.1725 44.4032C 29.396 48.0894 29.5636 51.273 29.6755 53.954C 30.3462 51.6081 31.2962 48.7596 32.5256 45.4085C 33.7552 41.9456 35.0964 38.315 36.5496 34.5171C 38.0025 30.6075 39.5672 26.7535 41.2439 22.9556C 43.0324 19.1576 44.7647 15.7506 46.4413 12.7346C 48.2296 9.71855 49.9622 7.26098 51.6388 5.36191C 53.3154 3.46284 54.9361 2.51341 56.5009 2.51341L 56.6685 2.51341C 58.6805 2.51341 60.6363 3.46284 62.5364 5.36191C 64.4366 7.26098 66.281 9.71855 68.0693 12.7346C 69.8575 15.7506 71.5342 19.2135 73.0989 23.1231C 74.6637 26.9212 76.1168 30.8309 77.4581 34.8522C 78.7993 38.762 79.973 42.6158 80.9789 46.4138C 81.9848 50.1 82.8231 53.2838 83.4938 55.9647C 83.6055 52.7251 83.7733 49.0947 83.9968 45.0734C 84.2203 40.9401 84.6116 36.8071 85.1705 32.6741C 85.841 28.5409 86.6793 24.5195 87.6852 20.6097C 88.8029 16.7001 90.1435 13.2372 91.7092 10.2212C 93.2748 7.09344 95.173 4.63588 97.4103 2.8485C 99.7576 0.949647 102.44 4.16026e-07 105.456 4.16026e-07C 108.586 4.16026e-07 110.878 1.11719 112.331 3.35114C 113.897 5.47361 114.679 8.09872 114.679 11.2265C 114.679 14.5776 114.232 19.0459 113.338 24.6312C 112.554 30.2165 111.437 36.3045 109.984 42.8951C 108.531 49.3739 106.798 55.9647 104.787 62.667C 102.887 69.2576 100.762 75.2338 98.4144 80.5958C 96.0692 85.9577 93.6095 90.3699 91.0376 93.833C 88.4676 97.1841 85.8969 98.8596 83.326 98.8596Z"/>
<path id="path3_fill" d="M 57.5083 10.8913C 57.5083 14.1308 56.3897 16.5325 54.1546 18.0963C 52.0296 19.6602 49.6272 21.1682 46.9452 22.6204C 44.2631 23.9608 41.8034 25.5806 39.5683 27.4797C 37.4434 29.3786 36.382 32.2271 36.382 36.025C 36.382 38.0358 36.829 39.7673 37.723 41.2194C 38.7294 42.6716 39.903 44.012 41.2441 45.2409C 42.6974 46.3579 44.2631 47.5307 45.9388 48.7596C 47.6146 49.9883 49.1252 51.3847 50.4662 52.9485C 51.9195 54.5124 53.0932 56.4113 53.9872 58.6455C 54.9936 60.8796 55.4957 63.6164 55.4957 66.8559C 55.4957 71.5476 54.2669 76.1833 51.8072 80.7633C 49.4599 85.2314 46.3858 89.2529 42.5851 92.8275C 38.8967 96.2903 34.7062 99.083 30.0115 101.205C 25.3168 103.328 20.6793 104.389 16.0969 104.389C 14.1965 104.389 12.2962 104.221 10.3958 103.886C 8.49545 103.663 6.76245 103.16 5.199 102.378C 3.74566 101.596 2.51472 100.535 1.51059 99.1947C 0.504263 97.7426 3.89764e-06 95.8994 3.89764e-06 93.6652C 3.89764e-06 90.5375 0.614366 88.1357 1.8453 86.4603C 3.07404 84.6729 4.63969 83.2767 6.54005 82.2712C 8.4404 81.2659 10.4509 80.484 12.5758 79.9256C 14.8109 79.3668 16.8786 78.6967 18.7789 77.9148C 20.6793 77.0212 22.2427 75.904 23.4737 74.5636C 24.7024 73.2231 25.3168 71.3242 25.3168 68.8666C 25.3168 66.5208 24.3677 64.1191 22.4673 61.6615C 20.6793 59.0922 18.6666 56.4113 16.4316 53.6189C 14.1965 50.7145 12.1288 47.6424 10.2284 44.403C 8.44039 41.1635 7.54638 37.589 7.54638 33.6794C 7.54638 28.8759 8.49545 24.4634 10.3958 20.4421C 12.4085 16.3091 15.0333 12.7343 18.2747 9.7183C 21.6284 6.70225 25.4291 4.35661 29.6768 2.68093C 33.9245 0.893644 38.3947 1.95935e-07 43.0894 1.95935e-07C 44.8774 1.95935e-07 46.6104 0.167545 48.2862 0.502681C 50.0742 0.837795 51.6399 1.45226 52.9809 2.34584C 54.322 3.12772 55.3833 4.24492 56.1673 5.69698C 57.0613 7.03757 57.5083 8.76888 57.5083 10.8913Z"/>
<path id="path4_fill" d="M 72.764 71.0448C 72.764 74.8429 71.533 78.585 69.0756 82.2712C 66.7282 85.8458 63.7092 89.0852 60.0208 91.9896C 56.4447 94.7822 52.589 97.0722 48.4536 98.8596C 44.3181 100.535 40.5174 101.373 37.0514 101.373C 31.1279 101.373 25.8188 99.9207 21.1241 97.0164C 16.5417 94.0003 12.6859 90.2024 9.55683 85.6224C 6.42554 81.0426 4.02312 76.0157 2.34737 70.5421C 0.781725 64.9568 -1.20961e-06 59.5391 -1.20961e-06 54.2888C -1.20961e-06 48.7038 0.781725 42.7275 2.34737 36.3601C 3.91081 29.9929 6.25818 24.1284 9.38947 18.7665C 12.6309 13.4046 16.654 8.93644 21.4588 5.36191C 26.3782 1.78716 32.1893 7.04561e-07 38.8967 7.04561e-07C 42.6974 7.04561e-07 46.3286 0.670183 49.7946 2.01077C 53.2584 3.23944 56.2774 5.02682 58.8472 7.37246C 61.4191 9.71833 63.4868 12.511 65.0503 15.7504C 66.6159 18.9899 67.3976 22.6205 67.3976 26.6418C 67.3976 31.892 66.2812 36.8069 64.0461 41.3869C 61.8089 45.967 58.8472 49.9324 55.1587 53.2836C 51.4703 56.6347 47.2226 59.3715 42.4178 61.494C 37.6107 63.5048 32.6936 64.6217 27.6641 64.8451C 28.1111 68.0846 29.3949 70.4304 31.5199 71.8827C 33.755 73.3348 36.382 74.0608 39.3988 74.0608C 41.6339 74.0608 43.8139 73.5023 45.9388 72.3854C 48.0616 71.2682 50.1293 70.0395 52.1419 68.6989C 54.1524 67.2468 56.11 65.9623 58.0104 64.8451C 60.0208 63.7281 62.0335 63.1697 64.0461 63.1697C 66.2812 63.1697 68.2917 63.8957 70.0797 65.3478C 71.87 66.8 72.764 68.6989 72.764 71.0448ZM 45.6019 29.9929C 45.6019 28.5409 45.2122 27.0327 44.4282 25.469C 43.6465 23.905 42.4178 23.1231 40.7398 23.1231C 38.2824 23.1231 36.2146 23.7933 34.5367 25.1337C 32.8609 26.3625 31.4626 27.9822 30.3462 29.9929C 29.2276 31.892 28.3336 33.9584 27.6641 36.1926C 27.1048 38.4267 26.7701 40.4933 26.6578 42.3922C 28.2212 42.0571 30.0666 41.6103 32.1893 41.0518C 34.4244 40.4934 36.4943 39.7673 38.3925 38.8735C 40.4051 37.8682 42.0808 36.6394 43.4241 35.1873C 44.8752 33.735 45.6019 32.0037 45.6019 29.9929Z"/>
<path id="path5_fill" d="M 58.8493 30.8309C 57.2837 30.9426 55.9427 30.8309 54.8262 30.4958C 53.7076 30.049 52.589 29.6022 51.4725 29.1552C 50.4662 28.7084 49.4599 28.3175 48.4535 27.9824C 47.4472 27.5356 46.3308 27.368 45.102 27.4797C 42.8648 27.5914 40.8543 28.2058 39.0663 29.3227C 37.3883 30.4399 35.8249 31.8362 34.3715 33.5118C 33.0305 35.1873 31.8568 37.0864 30.8505 39.2088C 29.8442 41.2196 29.0624 43.2302 28.5031 45.2409C 28.1684 46.5813 27.8887 48.6479 27.6641 51.4406C 27.5518 54.1215 27.4968 57.0259 27.4968 60.1536C 27.3845 63.3931 27.3294 66.465 27.3294 69.3693C 27.3294 72.2737 27.2171 74.5637 26.9947 76.2394C 26.8824 78.0265 26.6028 80.149 26.1557 82.6065C 25.7087 84.9524 24.9821 87.1864 23.9758 89.3088C 23.0817 91.4313 21.853 93.2184 20.2873 94.6707C 18.7239 96.1228 16.7112 96.849 14.2516 96.849C 12.3512 96.849 10.6754 96.2903 9.2221 95.1734C 7.88106 94.0564 6.70738 92.6041 5.70105 90.8169C 4.80702 88.9179 4.02532 86.7396 3.3537 84.282C 2.79438 81.8244 2.34738 79.3112 2.01267 76.742C 1.67796 74.061 1.39828 71.3801 1.17367 68.6991C 1.06357 66.0182 0.95128 63.5048 0.838977 61.1589C 0.838977 58.7016 0.838977 56.4674 0.838977 54.4566C 0.95128 52.4458 1.00634 50.8262 1.00634 49.5973C 0.896238 45.6877 0.671629 41.7781 0.33692 37.8683C 0.112313 33.8469 9.1393e-06 29.8814 9.1393e-06 25.9716C 9.1393e-06 23.514 0.112313 20.7775 0.33692 17.7612C 0.559325 14.7451 1.17367 11.9525 2.18 9.38345C 3.18633 6.7025 4.6397 4.46833 6.54005 2.68096C 8.55051 0.893799 11.2898 1.67753e-08 14.7558 1.67753e-08C 16.654 1.67753e-08 18.2747 0.614555 19.6179 1.84322C 20.959 3.0719 22.0203 4.58003 22.8021 6.36741C 23.6961 8.15456 24.3677 10.0536 24.8147 12.0644C 25.2617 14.075 25.5414 15.9182 25.6537 17.5936C 28.3358 13.2372 31.3526 9.71855 34.7063 7.03759C 38.06 4.24494 42.4178 2.7368 47.7841 2.51341C 50.4662 2.40171 53.0932 2.68096 55.663 3.35136C 58.3451 3.90985 60.7497 4.91512 62.8725 6.36741C 65.1075 7.70777 66.8956 9.49515 68.2388 11.7291C 69.69 13.9633 70.4739 16.5884 70.5862 19.6044C 70.8086 23.179 69.7472 25.9158 67.3999 27.8148C 65.0525 29.7139 62.203 30.7192 58.8493 30.8309Z"/>
<path id="path6_fill" d="M 26.6578 6.70234C 26.6578 8.26622 26.2108 9.66254 25.3168 10.8913C 24.5351 12.1201 23.4715 13.2371 22.1305 14.2425C 20.7894 15.1361 19.3361 15.8622 17.7726 16.4207C 16.207 16.8676 14.7536 17.091 13.4126 17.091C 11.1775 17.091 9.22211 16.5325 7.54417 15.4154C 5.86842 14.2983 5.02945 12.5669 5.02945 10.2211C 5.02945 8.54548 5.42142 7.09331 6.20314 5.86455C 7.09717 4.52409 8.16073 3.46288 9.38946 2.68093C 10.6182 1.7873 12.0165 1.11706 13.5799 0.670234C 15.1456 0.223408 16.654 0 18.1073 0C 20.2301 0 22.1877 0.502675 23.9758 1.50803C 25.7638 2.51339 26.6578 4.24481 26.6578 6.70234ZM 27.9989 63.6723C 27.9989 65.2361 27.9989 66.9117 27.9989 68.6991C 27.9989 70.3746 27.9438 71.9944 27.8315 73.5582C 27.7192 75.4572 27.6641 78.0265 27.6641 81.2659C 27.6641 84.3937 27.5518 87.8007 27.3294 91.4869C 27.1048 95.1734 26.7129 98.9154 26.1557 102.713C 25.7087 106.512 24.9248 109.974 23.8084 113.102C 22.6898 116.23 21.1814 118.799 19.281 120.81C 17.493 122.709 15.2007 123.714 12.4063 123.826C 10.2835 123.938 8.49545 123.1 7.04211 121.313C 5.58877 119.525 4.36003 117.235 3.3537 114.442C 2.45967 111.538 1.78805 108.355 1.34103 104.892C 0.894021 101.317 0.559311 97.9102 0.334703 94.6707C 0.112298 91.3194 9.94571e-06 88.2475 9.94571e-06 85.4548C 9.94571e-06 82.6622 9.94571e-06 80.5958 9.94571e-06 79.2552C 9.94571e-06 77.468 9.94571e-06 74.9546 9.94571e-06 71.7152C 9.94571e-06 68.3638 0.112298 64.7893 0.334703 60.9913C 0.559311 57.1934 0.951283 53.3394 1.5084 49.4298C 2.18002 45.5202 3.07403 41.9454 4.19266 38.706C 5.4214 35.4665 6.98705 32.8414 8.88741 30.8309C 10.7856 28.8201 13.1902 27.8148 16.0947 27.8148C 19.1136 27.8148 21.4038 29.3227 22.9694 32.3388C 24.5351 35.3548 25.7087 38.8735 26.4905 42.8951C 27.2722 46.9164 27.7192 50.9379 27.8315 54.9593C 27.9438 58.8689 27.9989 61.7732 27.9989 63.6723Z"/>
<path id="path7_fill" d="M 6.91209 19.4858C 19.7719 1.30521 36.6802 -0.9091 43.5268 0.256324C 46.2059 6.66615 48.5278 22.8072 36.3824 36.0931C 24.237 49.3789 7.50741 50.9523 0.660782 50.0781C -0.529941 46.2906 -0.946695 34.8693 6.91209 19.4858Z"/>
<path id="path8_fill" d="M 8.63231 25.2596C 24.6927 1.69195 45.8089 -1.17848 54.3595 0.332276C 57.7053 8.64141 60.6052 29.5652 45.4371 46.7879C 30.269 64.0104 9.37582 66.0499 0.825234 64.9168C -0.661828 60.0069 -1.1823 45.2016 8.63231 25.2596Z"/>
</defs>
</svg>
